<svg xmlns="http://www.w3.org/2000/svg" viewBox="0 0 512 512" width="512" height="512" role="img" aria-label="Professional of Badminton">
  <defs>
    <clipPath id="pobHead">
      <ellipse cx="0" cy="0" rx="43.11" ry="57.52"/>
    </clipPath>
  </defs>
  <circle cx="256" cy="256" r="256" fill="#070707"/>
  <g transform="translate(256 256) scale(1.3850) translate(-214.50 -186.50)">
  <g id="pob-mark">
    <g transform="translate(124.78 149.95) rotate(-40.1)">
      <g clip-path="url(#pobHead)" stroke="#7E8582" stroke-width="2.6" fill="none">
        <path d="M77.4 -81.0L93.4 61.9M58.4 -78.9L74.4 64.0M39.4 -76.8L55.5 66.1M20.4 -74.6L36.5 68.3M1.5 -72.5L17.5 70.4M-17.5 -70.4L-1.5 72.5M-36.5 -68.3L-20.4 74.6M-55.5 -66.1L-39.4 76.8M-74.4 -64.0L-58.4 78.9M-93.4 -61.9L-77.4 81.0"/>
        <path d="M-81.0 -77.4L61.9 -93.4M-78.9 -58.4L64.0 -74.4M-76.8 -39.4L66.1 -55.5M-74.6 -20.4L68.3 -36.5M-72.5 -1.5L70.4 -17.5M-70.4 17.5L72.5 1.5M-68.3 36.5L74.6 20.4M-66.1 55.5L76.8 39.4M-64.0 74.4L78.9 58.4M-61.9 93.4L81.0 77.4"/>
      </g>
      <ellipse cx="0" cy="0" rx="43.11" ry="57.52" fill="none" stroke="#9AA29E" stroke-width="3.4"/>
    </g>
    <g transform="translate(-49.862 -47.430) scale(0.202692)">
      <g transform="translate(0 3012) scale(0.1 -0.1)">
        <path fill="#A6B2AF" d="M14017 14745 c-16 -15 -15 -19 3 -55 11 -22 20 -45 20 -52 0 -7 14
-33 30 -58 22 -33 30 -57 30 -90 0 -33 8 -57 30 -90 16 -25 30 -52 30 -60 0
-8 14 -35 30 -60 16 -25 30 -52 30 -60 0 -8 14 -35 30 -60 16 -25 30 -54 30
-65 0 -33 675 -701 724 -717 35 -11 43 -19 54 -53 9 -27 46 -73 122 -150 81
-84 111 -122 119 -151 9 -32 60 -88 291 -319 l280 -280 90 0 91 0 104 106 105
106 0 83 0 84 -294 295 c-246 247 -296 303 -305 336 -13 49 -1041 1085 -1076
1085 -11 0 -40 14 -65 30 -25 16 -52 30 -60 30 -8 0 -35 14 -60 30 -25 16 -52
30 -60 30 -8 0 -35 14 -60 30 -25 16 -52 30 -60 30 -9 0 -33 12 -55 27 -49 33
-124 43 -148 18z"/>
        <path fill="#A0CFAA" d="M14376 24720 c-20 -22 -36 -48 -36 -58 0 -9 -14 -37 -30 -62 -22 -33
-30 -57 -30 -90 0 -33 -8 -57 -30 -90 -16 -25 -30 -52 -30 -60 0 -8 -14 -35
-30 -60 -16 -25 -30 -52 -30 -60 0 -8 -14 -35 -30 -60 -16 -25 -30 -52 -30
-60 0 -8 -14 -35 -30 -60 -16 -25 -30 -52 -30 -60 0 -8 -14 -35 -30 -60 -16
-25 -30 -52 -30 -60 0 -8 -14 -35 -30 -60 -16 -25 -30 -52 -30 -60 0 -8 -14
-35 -30 -60 -16 -25 -30 -52 -30 -60 0 -8 -14 -35 -30 -60 -22 -33 -30 -57
-30 -90 0 -33 -8 -57 -30 -90 -16 -25 -30 -52 -30 -60 0 -8 -14 -35 -30 -60
-16 -25 -30 -52 -30 -60 0 -8 -14 -35 -30 -60 -16 -25 -30 -52 -30 -60 0 -8
-14 -35 -30 -60 -22 -33 -30 -57 -30 -90 0 -33 -8 -57 -30 -90 -16 -25 -30
-52 -30 -60 0 -8 -14 -35 -30 -60 -16 -25 -30 -52 -30 -60 0 -8 -14 -35 -30
-60 -16 -25 -30 -52 -30 -60 0 -8 -14 -35 -30 -60 -16 -25 -30 -52 -30 -60 0
-8 -14 -35 -30 -60 -16 -25 -30 -52 -30 -60 0 -8 -14 -35 -30 -60 -22 -33 -30
-57 -30 -90 0 -33 -8 -57 -30 -90 -16 -25 -30 -52 -30 -60 0 -8 -14 -35 -30
-60 -16 -25 -30 -52 -30 -60 0 -8 -14 -35 -30 -60 -22 -33 -30 -57 -30 -90 0
-50 -11 -71 -77 -142 -24 -26 -43 -55 -43 -65 0 -10 -14 -38 -30 -63 -22 -33
-30 -57 -30 -90 0 -33 -8 -57 -30 -90 -16 -25 -30 -52 -30 -60 0 -8 -14 -35
-30 -60 -16 -25 -30 -52 -30 -60 0 -8 -14 -35 -30 -60 -16 -25 -30 -52 -30
-60 0 -8 -14 -35 -30 -60 -22 -33 -30 -57 -30 -90 0 -50 -11 -71 -77 -142 -38
-42 -43 -52 -43 -95 0 -37 -7 -59 -30 -93 -16 -25 -30 -52 -30 -60 0 -8 -14
-35 -30 -60 -16 -25 -30 -52 -30 -60 0 -8 -14 -35 -30 -60 -16 -25 -30 -52
-30 -60 0 -8 -14 -35 -30 -60 -16 -25 -30 -52 -30 -60 0 -8 -14 -35 -30 -60
-22 -34 -30 -57 -30 -91 0 -34 -7 -57 -30 -90 -16 -24 -30 -51 -30 -59 0 -8
-14 -35 -30 -60 -16 -25 -30 -52 -30 -60 0 -8 -14 -35 -30 -60 -16 -25 -30
-52 -30 -60 0 -8 -14 -35 -30 -60 -30 -46 -40 -109 -21 -139 13 -21 38 -6 54
31 8 18 38 59 66 91 28 32 51 66 51 75 0 9 14 37 30 62 16 25 30 51 30 59 0 8
13 35 29 60 16 25 31 58 35 72 3 14 30 54 61 88 30 34 55 69 55 79 0 9 14 37
30 62 16 25 30 51 30 59 0 8 13 35 29 60 16 25 31 58 35 73 3 14 29 51 57 82
28 30 55 71 60 90 5 18 34 62 64 95 30 34 55 69 55 78 0 9 13 37 29 62 16 25
31 58 35 72 8 36 74 98 116 109 52 14 526 490 541 542 5 21 32 62 60 92 28 31
55 71 60 90 5 19 32 60 60 90 28 31 55 72 61 93 14 50 125 158 176 173 54 14
768 728 782 781 6 20 35 64 65 98 30 34 55 69 55 79 0 9 14 37 30 62 16 25 30
52 30 60 0 8 14 35 30 60 22 33 30 57 30 90 0 33 8 57 30 90 l30 45 0 345 0
345 -30 45 c-22 33 -30 57 -30 90 0 33 -8 57 -30 90 -16 25 -30 52 -30 60 0 8
-14 35 -30 60 -16 25 -30 52 -30 60 0 9 -11 32 -25 52 -14 21 -31 53 -38 72
-15 44 -239 276 -266 276 -10 0 -35 -18 -55 -40z M16180 23453 c-8 -3 -28 -15 -44 -26 -17 -12 -55 -24 -87 -28 -35 -4
-70 -16 -90 -30 -20 -14 -55 -26 -90 -30 -36 -4 -70 -16 -95 -33 -21 -14 -45
-26 -54 -26 -8 0 -35 -14 -60 -30 -25 -16 -52 -30 -60 -30 -8 0 -35 -14 -60
-30 -25 -16 -53 -30 -62 -30 -10 0 -59 -38 -110 -85 -59 -55 -105 -89 -127
-95 -53 -14 -347 -310 -362 -363 -7 -26 -37 -67 -95 -127 -46 -49 -84 -97 -84
-107 0 -10 -14 -38 -30 -63 -22 -33 -30 -57 -30 -90 0 -33 -8 -57 -30 -90 -22
-33 -30 -57 -30 -90 0 -33 -8 -57 -30 -90 -22 -33 -30 -57 -30 -89 0 -31 -8
-58 -29 -90 -16 -25 -32 -59 -36 -76 -8 -38 -183 -212 -222 -221 -16 -4 -49
-19 -74 -35 -25 -16 -53 -29 -61 -29 -9 0 -48 -27 -87 -60 -40 -33 -80 -60
-90 -60 -10 0 -51 -27 -90 -60 -40 -33 -81 -60 -93 -60 -28 0 -287 -255 -295
-290 -3 -14 -18 -45 -33 -70 -15 -25 -30 -57 -34 -71 -3 -14 -30 -54 -61 -88
-50 -56 -55 -66 -55 -109 0 -35 -7 -58 -30 -92 -22 -33 -30 -57 -30 -90 0 -33
-8 -57 -30 -90 -22 -33 -30 -57 -30 -90 0 -33 -8 -57 -30 -90 -27 -40 -30 -53
-30 -120 0 -67 -3 -80 -30 -120 -22 -33 -30 -57 -30 -90 0 -33 -8 -57 -30 -90
-22 -33 -30 -57 -30 -90 0 -33 -8 -57 -30 -90 -16 -25 -30 -52 -30 -60 0 -8
-14 -35 -30 -60 -16 -25 -30 -51 -30 -59 0 -8 -13 -35 -29 -60 -16 -25 -32
-59 -35 -74 -4 -18 -51 -75 -121 -147 -63 -65 -115 -126 -115 -137 0 -10 -11
-36 -25 -58 -36 -59 -33 -69 17 -62 55 7 349 294 370 362 11 33 19 42 52 53
23 7 71 43 123 92 50 47 99 84 118 89 18 5 63 34 99 65 37 31 74 56 84 56 9 0
37 14 62 30 25 16 52 30 60 30 9 0 33 12 55 27 34 23 54 29 125 33 l85 6 68
57 c37 31 76 57 87 57 11 0 61 38 112 85 59 55 105 89 128 95 46 12 108 76
121 124 7 25 38 66 95 126 46 49 84 97 84 107 0 10 14 38 30 63 16 25 30 52
30 60 0 8 14 35 30 60 16 25 30 52 30 60 0 8 14 35 30 60 22 33 30 57 30 90 0
33 8 57 30 90 27 40 30 53 30 120 0 67 3 80 30 120 22 33 30 57 30 89 0 31 8
58 29 90 16 25 32 59 35 75 9 37 127 154 165 162 14 4 47 19 72 35 25 16 53
29 61 29 9 0 48 27 87 60 40 33 82 60 93 60 35 0 526 494 538 541 6 20 35 64
65 98 30 34 55 69 55 79 0 9 14 37 30 62 16 25 30 52 30 60 0 8 14 35 30 60
22 33 30 57 30 90 0 33 8 57 30 90 22 33 30 57 30 90 0 33 8 57 30 90 27 40
30 53 30 120 0 67 3 80 30 120 43 64 47 294 5 335 -25 26 -30 27 -55 18z M18388 23146 c-15 -8 -38 -22 -50 -30 -12 -9 -29 -16 -38 -16 -8 0
-35 -14 -60 -30 -25 -16 -52 -30 -60 -30 -8 0 -35 -14 -60 -30 -25 -16 -52
-30 -60 -30 -9 0 -33 -12 -55 -27 -26 -18 -60 -30 -96 -34 -36 -4 -71 -16 -95
-33 -21 -14 -45 -26 -54 -26 -8 0 -35 -14 -60 -30 -25 -16 -52 -30 -60 -30 -8
0 -35 -14 -60 -30 -25 -16 -52 -30 -60 -30 -9 0 -33 -12 -55 -27 -26 -18 -60
-30 -96 -34 -36 -4 -71 -16 -95 -33 -21 -14 -45 -26 -54 -26 -8 0 -35 -14 -60
-30 -25 -16 -52 -30 -60 -30 -8 0 -35 -14 -60 -30 -25 -16 -52 -30 -60 -30 -8
0 -35 -14 -60 -30 -25 -16 -52 -30 -60 -30 -8 0 -35 -14 -60 -30 -25 -16 -53
-30 -63 -30 -10 0 -72 -52 -138 -115 -86 -82 -131 -117 -157 -125 -47 -12
-109 -75 -122 -122 -6 -20 -35 -64 -65 -97 -30 -34 -55 -69 -55 -79 0 -9 -14
-37 -30 -62 -22 -33 -30 -57 -30 -90 0 -33 -8 -57 -30 -90 -16 -25 -30 -52
-30 -60 0 -8 -14 -35 -30 -60 -16 -25 -30 -52 -30 -60 0 -8 -14 -35 -30 -60
-16 -25 -30 -51 -30 -59 0 -8 -13 -35 -29 -60 -16 -25 -32 -59 -36 -76 -8 -38
-183 -212 -222 -221 -16 -4 -49 -19 -74 -35 -25 -16 -53 -29 -62 -29 -8 0 -45
-26 -82 -57 -60 -51 -73 -58 -125 -64 -51 -6 -65 -13 -124 -63 -36 -31 -76
-56 -88 -56 -28 0 -406 -374 -415 -410 -3 -14 -18 -46 -34 -71 -16 -25 -29
-52 -29 -60 0 -8 -14 -34 -30 -59 -22 -33 -30 -57 -30 -90 0 -33 -8 -57 -30
-90 -28 -43 -30 -50 -30 -150 0 -100 -2 -107 -30 -150 -27 -40 -30 -53 -30
-120 0 -67 -3 -80 -30 -120 -22 -33 -30 -57 -30 -89 0 -31 -8 -58 -29 -90 -16
-25 -32 -59 -35 -74 -4 -16 -42 -65 -87 -112 -55 -57 -83 -95 -91 -122 -8 -31
-69 -98 -334 -364 -191 -192 -324 -333 -324 -344 0 -10 -14 -40 -31 -67 -32
-50 -31 -98 2 -98 7 0 168 155 358 344 280 278 353 346 384 354 27 8 70 42
153 121 66 63 127 114 142 117 15 4 48 19 73 35 25 16 52 29 60 29 8 0 32 12
54 27 34 23 54 29 125 33 70 5 92 10 120 30 32 23 46 25 180 30 134 5 148 7
179 30 22 15 56 27 92 31 36 4 70 16 95 33 21 14 46 26 55 26 9 0 49 27 88 60
40 33 81 60 93 60 33 0 226 195 238 241 6 21 34 64 65 98 30 34 55 69 55 79 0
9 14 37 30 62 16 25 30 52 30 60 0 8 14 35 30 60 16 25 30 52 30 60 0 8 14 35
30 60 16 25 30 51 30 59 0 8 13 35 29 60 16 25 32 60 35 76 10 40 242 271 283
281 15 3 49 19 74 35 25 16 52 29 60 29 8 0 32 12 54 27 26 18 60 30 96 34 36
4 71 16 95 33 21 14 45 26 54 26 8 0 35 14 60 30 25 16 52 30 60 30 8 0 35 14
60 30 25 16 54 30 64 30 26 0 405 377 413 410 3 14 18 46 34 71 16 25 29 52
29 60 0 8 14 34 30 59 16 25 30 52 30 60 0 8 14 35 30 60 16 25 30 52 30 60 0
8 14 35 30 60 22 33 30 57 30 90 0 33 8 57 30 90 16 25 30 52 30 60 0 8 14 35
30 60 16 25 30 52 30 60 0 8 14 35 30 60 16 25 30 52 30 60 0 8 14 35 30 60
22 33 30 57 30 90 0 33 8 57 30 90 16 25 30 52 30 60 0 8 14 35 30 60 16 25
30 52 30 60 0 8 14 35 30 60 16 25 30 52 30 60 0 8 14 35 30 60 16 25 30 52
30 60 0 8 14 35 30 60 22 33 30 57 30 90 0 33 8 57 30 90 36 55 37 64 5 95
-28 29 -84 33 -127 11z M18580 20813 c-8 -3 -28 -15 -45 -27 -23 -16 -51 -22 -115 -26 -69
-5 -92 -10 -120 -30 -21 -15 -55 -27 -91 -31 -36 -4 -70 -16 -91 -30 -26 -19
-50 -25 -118 -29 -71 -5 -92 -10 -125 -33 -22 -15 -46 -27 -55 -27 -8 0 -35
-14 -60 -30 -25 -16 -52 -30 -61 -30 -9 0 -49 -27 -88 -60 -40 -33 -82 -60
-93 -60 -35 0 -526 -494 -539 -542 -5 -21 -32 -61 -60 -92 -28 -31 -55 -71
-60 -90 -5 -19 -32 -60 -60 -90 -28 -31 -55 -72 -61 -93 -13 -48 -125 -158
-173 -172 -19 -5 -49 -20 -67 -33 -26 -18 -50 -24 -118 -28 -69 -5 -92 -10
-120 -30 -21 -15 -55 -27 -91 -31 -35 -4 -70 -16 -90 -30 -20 -14 -55 -26 -90
-30 -36 -4 -70 -16 -95 -33 -21 -14 -45 -26 -54 -26 -8 0 -35 -14 -60 -30 -25
-16 -53 -30 -62 -30 -10 0 -59 -38 -110 -85 -59 -55 -105 -89 -128 -95 -43
-12 -300 -265 -300 -296 0 -10 -14 -39 -30 -64 -16 -25 -30 -52 -30 -60 0 -8
-14 -35 -30 -60 -16 -25 -30 -52 -30 -60 0 -8 -14 -35 -30 -60 -16 -25 -30
-52 -30 -60 0 -8 -14 -35 -30 -60 -22 -33 -30 -57 -30 -90 0 -33 -8 -57 -30
-90 -16 -25 -30 -51 -30 -59 0 -8 -13 -35 -29 -60 -16 -25 -32 -59 -35 -75 -5
-21 -72 -95 -212 -236 -138 -140 -204 -214 -204 -228 0 -31 -67 -102 -116
-122 -38 -17 -114 -133 -114 -174 0 -28 82 5 144 58 37 31 75 56 85 56 10 0
51 27 90 60 40 33 80 60 90 60 10 0 51 27 90 60 40 33 80 60 89 60 9 0 37 14
62 30 25 16 52 30 60 30 8 0 35 14 60 30 25 16 52 30 60 30 9 0 33 12 55 27
34 23 54 29 125 33 70 5 92 10 120 30 29 20 51 26 120 30 69 5 92 10 120 30
21 15 55 27 91 31 36 4 70 16 95 33 21 14 46 26 54 26 8 0 33 12 55 27 26 18
60 30 96 34 36 4 71 16 95 33 21 14 46 26 55 26 9 0 49 27 88 60 40 33 81 60
93 60 33 0 226 195 238 241 6 21 34 64 65 98 30 34 55 69 55 79 0 9 14 37 30
62 16 25 30 51 30 59 0 8 13 35 29 60 16 25 31 58 35 73 3 14 29 51 57 82 28
31 55 72 61 93 13 48 125 158 173 172 19 5 49 20 67 33 26 18 50 24 118 28 69
5 92 10 120 30 21 15 55 27 91 31 36 4 70 16 95 33 21 14 45 26 54 26 8 0 35
14 60 30 25 16 52 30 61 30 9 0 49 27 88 60 40 33 81 60 93 60 35 0 286 255
299 303 7 27 34 64 90 122 51 53 84 96 90 118 5 19 34 63 64 96 30 34 55 69
55 79 0 9 14 37 30 62 16 25 30 52 30 60 0 8 14 35 30 60 22 33 30 57 30 90 0
33 8 57 30 90 22 33 30 57 30 90 0 33 8 57 30 90 84 126 11 278 -110 233z M18520 19373 c-8 -3 -28 -15 -44 -26 -17 -12 -55 -24 -87 -28 -36 -4
-70 -16 -95 -33 -21 -14 -45 -26 -54 -26 -8 0 -35 -14 -60 -30 -25 -16 -52
-30 -61 -30 -9 0 -49 -27 -88 -60 -40 -33 -81 -60 -91 -60 -11 0 -61 -38 -112
-85 -58 -54 -105 -89 -127 -95 -54 -15 -288 -251 -302 -305 -15 -58 -594 -637
-653 -654 -33 -9 -111 -82 -480 -450 -320 -318 -449 -441 -471 -446 -17 -4
-51 -20 -76 -36 -25 -16 -52 -29 -60 -29 -8 0 -34 -14 -59 -30 -25 -16 -52
-30 -60 -30 -8 0 -35 -14 -60 -30 -25 -16 -52 -30 -61 -30 -9 0 -49 -27 -88
-60 -40 -33 -80 -60 -89 -60 -9 0 -37 -14 -62 -30 -25 -16 -52 -30 -62 -30 -9
0 -49 -27 -88 -60 -39 -33 -79 -60 -88 -60 -10 0 -37 -14 -62 -30 -25 -16 -52
-30 -60 -30 -8 0 -35 -14 -60 -30 -25 -16 -52 -30 -60 -30 -8 0 -35 -14 -60
-30 -25 -16 -53 -30 -64 -30 -27 0 -98 -74 -90 -94 9 -24 60 -20 102 9 20 14
43 25 52 25 8 0 35 14 60 30 25 16 52 30 60 30 8 0 35 14 60 30 25 16 52 30
60 30 9 0 33 12 55 27 26 18 60 30 96 34 36 4 71 16 95 33 21 14 45 26 54 26
8 0 35 14 60 30 25 16 52 30 60 30 8 0 35 14 60 30 25 16 52 30 60 30 8 0 35
14 60 30 25 16 52 30 60 30 8 0 35 14 60 30 25 16 52 30 60 30 8 0 35 14 60
30 25 16 52 30 60 30 9 0 33 12 55 27 26 18 60 30 96 34 36 4 71 16 95 33 21
14 45 26 54 26 8 0 35 14 60 30 25 16 52 30 60 30 8 0 35 14 60 30 25 16 52
30 60 30 8 0 35 14 60 30 25 16 52 30 60 30 9 0 33 12 55 27 26 18 60 30 96
34 36 4 71 16 95 33 21 14 45 26 54 26 8 0 35 14 60 30 25 16 52 30 60 30 8 0
35 14 60 30 25 16 52 30 60 30 8 0 35 14 60 30 25 16 52 30 60 30 8 0 35 14
60 30 25 16 52 30 60 30 8 0 35 14 60 30 25 16 52 30 60 30 8 0 35 14 60 30
25 16 52 30 60 30 9 0 33 12 55 27 26 18 60 30 96 34 36 4 71 16 95 33 21 14
45 26 54 26 8 0 35 14 60 30 25 16 52 30 60 30 8 0 35 14 60 30 25 16 52 30
60 30 8 0 35 14 60 30 25 16 52 30 60 30 8 0 35 14 60 30 25 16 52 30 60 30 9
0 33 12 55 27 26 18 60 30 96 34 36 4 71 16 95 33 21 14 45 26 54 26 8 0 35
14 60 30 25 16 52 30 60 30 8 0 35 14 60 30 25 16 52 30 60 30 8 0 35 14 60
30 25 16 52 30 60 30 8 0 35 14 60 30 25 16 52 30 60 30 8 0 35 14 60 30 25
16 52 30 60 30 9 0 33 12 55 27 26 18 60 30 96 34 36 4 71 16 95 33 21 14 45
26 54 26 8 0 35 14 60 30 25 16 52 30 60 30 8 0 35 14 60 30 25 16 52 30 60
30 8 0 35 14 60 30 25 16 52 30 60 30 8 0 35 14 60 30 25 16 50 30 57 30 31 0
45 31 26 59 -36 53 -300 301 -322 301 -11 0 -51 25 -87 56 -59 50 -73 57 -123
63 -35 4 -70 16 -90 30 -20 14 -55 26 -90 30 -36 4 -70 16 -92 31 l-34 25
-285 2 c-157 1 -292 -1 -300 -4z M11130 18047 c-14 -7 -36 -20 -50 -29 -14 -9 -37 -18 -51 -22 -64
-14 -109 -88 -109 -175 l0 -80 55 -62 c30 -33 59 -77 65 -97 7 -28 85 -112
359 -386 291 -293 351 -358 360 -390 9 -33 72 -102 390 -420 317 -319 381
-387 390 -420 9 -33 68 -98 360 -390 300 -302 351 -357 360 -392 12 -46 87
-124 118 -124 10 0 36 -12 58 -27 32 -23 51 -28 98 -28 l58 0 74 76 75 76 0
114 0 113 -324 325 c-269 271 -326 333 -335 365 -9 33 -73 102 -390 420 -318
319 -381 387 -390 420 -9 34 -76 105 -420 450 -352 353 -411 417 -420 452 -12
46 -145 184 -178 184 -10 0 -34 11 -53 24 -49 33 -71 38 -100 23z M10720 17574 c-41 -16 -271 -260 -281 -299 -9 -31 -46 -75 -185 -216
-101 -102 -174 -184 -174 -195 0 -11 -14 -39 -30 -64 -16 -25 -30 -52 -30 -60
0 -8 -14 -35 -30 -60 -16 -25 -30 -52 -30 -60 0 -8 -14 -35 -30 -60 -22 -33
-30 -57 -30 -90 0 -33 -8 -57 -30 -90 -22 -33 -30 -57 -30 -90 0 -33 -8 -57
-30 -90 l-30 -45 0 -405 0 -405 30 -45 c22 -33 30 -57 30 -90 0 -33 8 -57 30
-90 22 -33 30 -57 30 -90 0 -33 8 -57 30 -90 16 -25 30 -52 30 -60 0 -8 14
-35 30 -60 16 -25 30 -53 30 -62 0 -10 25 -45 55 -79 30 -34 59 -78 65 -98 12
-44 384 -421 416 -421 10 0 39 -14 64 -30 25 -16 53 -30 62 -30 10 0 48 -25
84 -56 59 -50 73 -57 123 -63 36 -4 70 -16 91 -31 28 -20 51 -25 120 -30 69
-4 91 -10 120 -30 l35 -25 355 0 355 0 35 25 c29 20 51 26 120 30 71 5 92 10
125 33 22 15 46 27 55 27 8 0 35 14 60 30 25 16 52 30 61 30 9 0 49 27 88 60
40 33 81 60 91 60 11 0 61 38 112 85 59 55 105 89 127 95 51 14 347 310 361
362 6 20 35 64 65 97 76 85 77 81 -89 250 -111 113 -147 156 -155 186 -9 32
-72 101 -360 389 -295 297 -351 357 -360 391 -14 54 -187 228 -246 247 -33 11
-42 20 -53 53 -10 31 -59 87 -212 240 -161 163 -200 207 -209 240 -9 34 -68
97 -380 409 l-369 369 -48 3 c-27 2 -56 1 -64 -2z"/>
      </g>
    </g>
  </g>
  </g>
</svg>
